<?xml version="1.0" encoding="UTF-8" standalone="no"?>
<svg width="24" height="25" viewBox="0 0 24 25" fill="none" xmlns="http://www.w3.org/2000/svg">
  <defs>
    <!-- 회색이 많이 섞인 나무 무늬 패턴 정의 -->
    <pattern id="woodPatternGray" patternUnits="userSpaceOnUse" width="10" height="10">
      <rect width="10" height="10" fill="#A9A9A9" />
      <path d="M0,0 L10,10 M10,0 L0,10" stroke="#696969" stroke-width="1" />
    </pattern>
    <clipPath id="clip0_1_2275">
      <rect width="20" height="20" fill="white" transform="translate(2 2.07996)" />
    </clipPath>
  </defs>
  <g clip-path="url(#clip0_1_2275)">
    <path fill-rule="evenodd" clip-rule="evenodd" d="M12 22.08C17.5228 22.08 22 17.6028 22 12.08C22 6.55711 17.5228 2.07996 12 2.07996C6.47715 2.07996 2 6.55711 2 12.08C2 17.6028 6.47715 22.08 12 22.08Z" fill="url(#woodPatternGray)" />
    <mask id="mask0_1_2275" style="mask-type:alpha" maskUnits="userSpaceOnUse" x="2" y="2" width="20" height="21">
      <path fill-rule="evenodd" clip-rule="evenodd" d="M12 22.08C17.5228 22.08 22 17.6028 22 12.08C22 6.55711 17.5228 2.07996 12 2.07996C6.47715 2.07996 2 6.55711 2 12.08C2 17.6028 6.47715 22.08 12 22.08Z" fill="white" />
    </mask>
    <g mask="url(#mask0_1_2275)">
      <path d="M24.5 14.58H-0.5V27.08H24.5V14.58Z" fill="url(#woodPatternGray)" />
      <path d="M24.5 15.08H-0.5V27.58H24.5V15.08Z" fill="url(#woodPatternGray)" />
      <path d="M24.5 2.07996H-0.5V15.08H24.5V2.07996Z" fill="url(#woodPatternGray)" />
    </g>
  </g>
</svg>



