<?xml version="1.0" encoding="utf-8"?>
<!-- Generator: Adobe Illustrator 16.0.0, SVG Export Plug-In . SVG Version: 6.00 Build 0)  -->
<!DOCTYPE svg PUBLIC "-//W3C//DTD SVG 1.1//EN" "http://www.w3.org/Graphics/SVG/1.1/DTD/svg11.dtd">
<svg version="1.1" id="레이어_1" xmlns="http://www.w3.org/2000/svg" xmlns:xlink="http://www.w3.org/1999/xlink" x="0px"
	 y="0px" width="30" height="30" viewBox="0 0 750 750" enable-background="new 0 0 595.279 841.89"
	 xml:space="preserve">
<path d="M571.097,68.428c-3.721-1.86-7.441-0.93-10.231,1.86L21.393,609.761c-2.79,2.789-3.721,6.51-1.86,10.23
	c0.931,3.721,4.65,5.58,8.371,5.58h539.473c5.581,0,9.302-3.719,9.302-9.301V76.799C576.678,73.078,574.818,69.357,571.097,68.428z
	 M558.075,606.97H50.227l135.798-135.799l21.394,21.393c1.86,1.861,4.65,2.791,6.511,2.791s4.65-0.93,6.511-2.791
	c3.721-3.721,3.721-9.301,0-13.021l-21.393-21.393l24.183-24.184l49.297,49.297c1.86,1.861,4.65,2.791,6.511,2.791
	s4.651-0.93,6.511-2.791c3.721-3.721,3.721-9.301,0-13.021l-49.296-49.296l24.183-24.184l21.394,21.393
	c1.86,1.86,4.65,2.791,6.511,2.791s4.65-0.93,6.511-2.791c3.72-3.721,3.72-9.301,0-13.022l-21.393-21.393l24.183-24.184
	l49.297,49.297c1.86,1.86,4.65,2.79,6.511,2.79s4.65-0.93,6.511-2.79c3.721-3.721,3.721-9.301,0-13.022l-49.297-49.296
	l24.184-24.184l21.393,21.393c1.86,1.86,4.651,2.791,6.511,2.791c1.86,0,4.651-0.93,6.512-2.791c3.72-3.721,3.72-9.301,0-13.022
	l-21.394-21.393l24.184-24.184l49.297,49.297c1.86,1.86,4.65,2.791,6.511,2.791s4.65-0.93,6.511-2.791
	c3.721-3.721,3.721-9.301,0-13.021l-49.297-49.297l24.184-24.183l21.393,21.393c1.86,1.86,4.65,2.791,6.511,2.791
	s4.65-0.93,6.511-2.791c3.721-3.72,3.721-9.301,0-13.021l-21.393-21.393L558.075,99.122V606.97z"/>
<path d="M280.898,564.185c1.86,3.721,4.65,5.58,8.371,5.58h222.3c5.581,0,9.302-3.721,9.302-9.301v-222.3
	c0-3.721-1.86-7.441-5.581-8.371c-3.721-1.86-7.441-0.93-10.231,1.86l-222.3,222.3C279.968,556.744,279.968,560.464,280.898,564.185
	z M502.268,361.417v189.747H312.522L502.268,361.417z"/>
</svg>
