<?xml version="1.0" encoding="utf-8"?>
<!-- Generator: Adobe Illustrator 16.0.0, SVG Export Plug-In . SVG Version: 6.00 Build 0)  -->
<!DOCTYPE svg PUBLIC "-//W3C//DTD SVG 1.1//EN" "http://www.w3.org/Graphics/SVG/1.1/DTD/svg11.dtd">
<svg version="1.1" id="레이어_1" xmlns="http://www.w3.org/2000/svg" xmlns:xlink="http://www.w3.org/1999/xlink" x="0px"
	 y="0px" width="30" height="30" viewBox="0 0 600 700" enable-background="new 0 0 595.279 841.89"
	 xml:space="preserve">
<path d="M210.513,231.284h-91.511c-16.953,0-30.884,13.931-30.884,30.884v281.87c0,16.953,13.931,30.885,30.884,30.885h281.87
	c16.954,0,30.885-13.932,30.885-30.885V436.57c0-9.07,13.486-6.49,25.979-6.49c3.573,0,6.49,2.918,6.49,6.49v107.469
	c0,34.881-28.475,63.354-63.354,63.354h-281.87c-34.88,0-63.354-28.473-63.354-63.354l0.021-281.871
	c0-34.879,28.475-63.354,63.354-63.354h91.511c9.068,0,6.489,13.487,6.489,25.98C217.003,228.367,214.085,231.284,210.513,231.284
	L210.513,231.284z M528.679,261.302L401.652,134.274c-2.029-2.029-5.538-0.592-5.538,2.304v63.673l-11.098,1.628
	c-118.423,17.44-175.013,71.471-187.719,186.133c-3.34,30.144-2.833,51.283-4.481,79.211c-0.275,4.797,5.2,4.967,6.257,1.605
	c14.1-44.793,36.655-89.714,76.97-116.264c37.648-24.796,77.262-26.762,120.073-25.811v63.863c0,2.875,3.509,4.333,5.538,2.304
	l127.027-127.028c1.269-1.268,1.269-3.318,0-4.587L528.679,261.302z"/>
</svg>
