<?xml version="1.0" encoding="utf-8"?>
<!-- Generator: Adobe Illustrator 16.0.0, SVG Export Plug-In . SVG Version: 6.00 Build 0)  -->
<!DOCTYPE svg PUBLIC "-//W3C//DTD SVG 1.1//EN" "http://www.w3.org/Graphics/SVG/1.1/DTD/svg11.dtd">
<svg version="1.1" id="레이어_1" xmlns="http://www.w3.org/2000/svg" xmlns:xlink="http://www.w3.org/1999/xlink" x="0px"
	 y="0px" width="50" height="50" viewBox="55 0 900 900" enable-background="new 0 0 595.279 841.89"
	 xml:space="preserve">
<title>e_0086_cubic_exp</title>
<path d="M500.875,309.85v-11.905c0-1.644,1.332-2.977,2.977-2.977c1.644,0,2.977,1.333,2.977,2.977v11.905
	c0,1.644-1.333,2.977-2.977,2.977C502.207,312.827,500.875,311.494,500.875,309.85z M500.875,333.662
	c0,1.644,1.332,2.976,2.977,2.976c1.644,0,2.977-1.333,2.977-2.976v-11.906c0-1.644-1.333-2.977-2.977-2.977
	c-1.645,0-2.977,1.333-2.977,2.977V333.662z M500.875,357.473c0,1.644,1.332,2.977,2.977,2.977c1.644,0,2.977-1.333,2.977-2.977
	v-11.906c0-1.644-1.333-2.976-2.977-2.976c-1.645,0-2.977,1.333-2.977,2.976V357.473z M378.587,534.476l-10.313,5.953
	c-1.424,0.82-1.911,2.643-1.09,4.066c0.822,1.424,2.643,1.91,4.066,1.09l10.313-5.953c1.424-0.822,1.912-2.643,1.091-4.066
	C381.831,534.142,380.011,533.654,378.587,534.476z M357.964,546.38l-5.944,3.434c-1.801-1.064-4.032-1.088-5.854-0.059
	l-42.573,24.58v-49.225c0-3.287-2.665-5.953-5.953-5.953c-3.287,0-5.952,2.666-5.952,5.953v49.225l-42.652-24.627
	c-2.848-1.643-6.489-0.668-8.133,2.18c-1.644,2.85-0.668,6.49,2.18,8.133l0,0l51.581,29.783c0.142,0.082,0.299,0.113,0.444,0.184
	c0.159,0.074,0.315,0.137,0.482,0.197c1.311,0.553,2.789,0.553,4.1,0c0.167-0.061,0.323-0.123,0.482-0.197
	c0.146-0.07,0.303-0.102,0.444-0.184l51.503-29.736c1.799-1.064,2.895-3.008,2.877-5.098l5.944-3.432
	c1.424-0.822,1.912-2.643,1.09-4.066C361.209,546.046,359.388,545.56,357.964,546.38L357.964,546.38L357.964,546.38z
	 M399.206,522.57l-10.31,5.953c-1.424,0.822-1.912,2.643-1.09,4.066c0.821,1.424,2.643,1.912,4.066,1.09l10.31-5.953
	c1.424-0.822,1.912-2.643,1.09-4.066C402.451,522.236,400.63,521.748,399.206,522.57z M419.829,510.664l-10.313,5.953
	c-1.425,0.822-1.912,2.643-1.091,4.066c0.822,1.424,2.643,1.912,4.066,1.09l10.313-5.953c1.424-0.82,1.911-2.641,1.09-4.066
	C423.073,510.33,421.253,509.843,419.829,510.664L419.829,510.664z M175.402,510.636l-10.311-5.953
	c-1.424-0.822-3.244-0.334-4.066,1.09c-0.821,1.424-0.333,3.244,1.091,4.066l0,0l10.31,5.953c1.424,0.82,3.244,0.334,4.066-1.09
	C177.314,513.277,176.825,511.457,175.402,510.636z M154.779,498.73l-5.944-3.432c0.018-2.092-1.078-4.033-2.877-5.1l-42.623-24.607
	l42.623-24.607c2.848-1.645,3.823-5.285,2.18-8.133s-5.285-3.824-8.133-2.18l-42.623,24.607v-50.184
	c0-3.288-2.665-5.953-5.952-5.953c-3.288,0-5.953,2.665-5.953,5.953v60.496c0,0.16,0.049,0.311,0.062,0.469
	c0.015,0.182,0.04,0.352,0.071,0.531c0.103,0.691,0.327,1.357,0.662,1.971l0.001,0.006l0.016,0.02
	c0.262,0.447,0.58,0.859,0.947,1.225c0.406,0.313,0.812,0.623,1.218,0.936l51.552,29.764c1.84,1.064,4.108,1.063,5.947-0.004
	l5.852,3.379c1.424,0.822,3.244,0.334,4.066-1.09C156.691,501.373,156.203,499.552,154.779,498.73L154.779,498.73z M196.021,522.541
	l-10.31-5.953c-1.424-0.82-3.244-0.334-4.066,1.09s-0.334,3.246,1.09,4.066l10.311,5.953c1.424,0.822,3.244,0.334,4.066-1.09
	C197.933,525.183,197.445,523.363,196.021,522.541z M216.644,534.447l-10.31-5.953c-1.424-0.822-3.245-0.334-4.066,1.09
	c-0.822,1.424-0.334,3.244,1.09,4.066l10.31,5.953c1.424,0.822,3.244,0.334,4.066-1.09S218.068,535.269,216.644,534.447z
	 M237.264,546.353l-10.311-5.953c-1.424-0.822-3.244-0.334-4.066,1.09c-0.821,1.424-0.334,3.244,1.09,4.066l10.311,5.953
	c1.424,0.82,3.244,0.334,4.066-1.09C239.175,548.994,238.688,547.173,237.264,546.353z M91.428,379.275
	c-1.643-0.001-2.975,1.33-2.976,2.973c0,0.001,0,0.002,0,0.003v11.905c0,1.644,1.332,2.977,2.976,2.977
	c1.645,0,2.977-1.333,2.977-2.977v-11.905c0.001-1.643-1.33-2.976-2.973-2.977C91.431,379.275,91.43,379.275,91.428,379.275z
	 M94.405,358.44c0-1.644-1.332-2.976-2.977-2.976c-1.644,0-2.976,1.333-2.976,2.976v11.906c0,1.644,1.332,2.977,2.976,2.977
	c1.645,0,2.977-1.333,2.977-2.977V358.44z M94.405,310.818c0-1.644-1.332-2.977-2.977-2.977c-1.644,0-2.976,1.333-2.976,2.977
	v11.905c0,1.644,1.332,2.977,2.976,2.977c1.645,0,2.977-1.333,2.977-2.977V310.818z M94.405,334.629
	c0-1.644-1.332-2.977-2.977-2.977c-1.644,0-2.976,1.333-2.976,2.977v11.906c0,1.644,1.332,2.976,2.976,2.976
	c1.645,0,2.977-1.333,2.977-2.976V334.629z M88.452,292.047v6.866c0,1.644,1.332,2.977,2.976,2.977c1.645,0,2.977-1.333,2.977-2.977
	v-6.866c1.819-1.03,2.953-2.95,2.977-5.04V237.79l42.611,24.601c2.848,1.644,6.489,0.668,8.133-2.18
	c1.644-2.848,0.668-6.489-2.18-8.133l-42.611-24.6l42.617-24.604c2.849-1.642,3.826-5.283,2.184-8.131
	c-1.643-2.849-5.283-3.827-8.132-2.184c-0.001,0.001-0.003,0.002-0.005,0.003l-51.546,29.761c-0.138,0.08-0.243,0.197-0.373,0.287
	c-0.151,0.104-0.289,0.213-0.432,0.332c-0.547,0.435-1.012,0.963-1.374,1.56l-0.002,0.001l-0.002,0.005
	c-0.334,0.613-0.559,1.28-0.661,1.971c-0.031,0.18-0.057,0.351-0.071,0.531c-0.013,0.159-0.062,0.309-0.062,0.469v59.528
	C85.499,289.097,86.633,291.017,88.452,292.047z M194.507,170.945c0.521,0,1.033-0.137,1.485-0.398l10.31-5.953
	c1.424-0.822,1.912-2.643,1.09-4.066s-2.643-1.912-4.066-1.09l-10.31,5.953c-1.424,0.821-1.913,2.642-1.092,4.065
	C192.456,170.378,193.442,170.946,194.507,170.945L194.507,170.945z M215.126,159.039c0.521,0,1.034-0.137,1.485-0.398l10.313-5.953
	c1.425-0.822,1.912-2.642,1.091-4.066c-0.822-1.424-2.643-1.912-4.066-1.09l-10.313,5.953c-1.424,0.821-1.912,2.642-1.091,4.065
	C213.076,158.473,214.061,159.041,215.126,159.039z M173.884,182.851c0.521,0,1.034-0.137,1.485-0.398l10.313-5.953
	c1.425-0.822,1.912-2.643,1.091-4.066c-0.822-1.424-2.643-1.912-4.066-1.09l-10.313,5.953c-1.424,0.821-1.912,2.642-1.091,4.065
	C171.834,182.284,172.819,182.852,173.884,182.851L173.884,182.851z M235.749,147.134c0.521,0,1.034-0.137,1.485-0.398l5.852-3.378
	c1.839,1.066,4.106,1.067,5.946,0.004l42.655-24.627v49.206c0.023,2.09,1.157,4.01,2.976,5.04v6.865
	c0,1.644,1.333,2.977,2.977,2.977s2.977-1.333,2.977-2.977v-6.865c1.819-1.03,2.953-2.95,2.977-5.04v-49.206l42.573,24.581
	c2.849,1.642,6.489,0.665,8.132-2.184c1.642-2.847,0.666-6.485-2.179-8.129l-51.503-29.735c-0.142-0.082-0.299-0.115-0.445-0.184
	c-0.158-0.075-0.313-0.136-0.479-0.198c-1.323-0.493-2.779-0.493-4.103,0c-0.166,0.062-0.322,0.123-0.48,0.198
	c-0.146,0.069-0.304,0.102-0.445,0.184l-51.584,29.781c-1.799,1.066-2.895,3.008-2.877,5.099l-5.944,3.432
	c-1.424,0.821-1.912,2.642-1.091,4.065C233.699,146.567,234.684,147.135,235.749,147.134L235.749,147.134z M153.264,194.756
	c0.521,0,1.034-0.137,1.485-0.398l10.311-5.953c1.424-0.822,1.912-2.643,1.09-4.066c-0.822-1.424-2.643-1.912-4.066-1.09
	l-10.31,5.953c-1.425,0.821-1.913,2.642-1.092,4.065C151.214,194.189,152.199,194.757,153.264,194.756z M358.023,146.721
	l10.31,5.953c1.424,0.822,3.245,0.333,4.066-1.09c0.822-1.424,0.334-3.245-1.09-4.066l-10.31-5.953
	c-1.424-0.822-3.245-0.334-4.066,1.09C356.111,144.078,356.599,145.899,358.023,146.721z M378.643,158.626l10.31,5.953
	c1.424,0.822,3.244,0.334,4.066-1.09c0.821-1.424,0.334-3.245-1.09-4.066l-10.311-5.953c-1.424-0.822-3.244-0.334-4.066,1.09
	C376.731,155.984,377.218,157.805,378.643,158.626L378.643,158.626L378.643,158.626z M419.885,182.438l10.31,5.953
	c1.424,0.822,3.244,0.334,4.066-1.09c0.822-1.424,0.334-3.244-1.09-4.066l0,0l-10.31-5.953c-1.425-0.822-3.245-0.334-4.066,1.09
	C417.973,179.795,418.461,181.616,419.885,182.438L419.885,182.438z M399.265,170.532l10.31,5.953
	c1.424,0.822,3.245,0.334,4.066-1.09c0.822-1.424,0.334-3.245-1.09-4.066l0,0l-10.31-5.953c-1.424-0.822-3.244-0.333-4.066,1.09
	S397.841,169.71,399.265,170.532z M509.742,227.01c-0.014-0.181-0.04-0.351-0.07-0.531c-0.104-0.691-0.327-1.358-0.662-1.971
	l-0.002-0.005l-0.002-0.001c-0.363-0.599-0.831-1.129-1.38-1.565c-0.14-0.116-0.272-0.222-0.421-0.324
	c-0.132-0.091-0.237-0.209-0.377-0.29l-51.547-29.761c-1.822-1.027-4.054-1.005-5.856,0.056l-5.941-3.431
	c-1.423-0.824-3.244-0.338-4.068,1.084c-0.823,1.422-0.338,3.244,1.085,4.068c0.002,0.001,0.005,0.002,0.007,0.004l5.944,3.432
	c-0.018,2.091,1.078,4.033,2.877,5.099l42.617,24.604l-42.619,24.605c-1.8,1.066-2.896,3.009-2.878,5.1l-0.788,0.455
	c-1.424,0.822-1.912,2.643-1.09,4.066s2.643,1.912,4.066,1.09l0.695-0.402c1.839,1.065,4.106,1.067,5.946,0.004l42.62-24.606v49.216
	c0,3.288,2.665,5.953,5.953,5.953c3.287,0,5.952-2.665,5.952-5.953v-59.528C509.804,227.318,509.755,227.168,509.742,227.01
	L509.742,227.01z M265.211,361.821l-10.311,5.953c-1.424,0.822-1.912,2.643-1.09,4.066s2.643,1.912,4.066,1.09l10.31-5.953
	c1.424-0.822,1.912-2.643,1.091-4.066C268.455,361.487,266.635,360.999,265.211,361.821z M244.591,373.727l-10.31,5.953
	c-1.424,0.822-1.912,2.642-1.09,4.066c0.821,1.424,2.642,1.912,4.066,1.09l10.31-5.953c1.424-0.822,1.912-2.642,1.09-4.066
	C247.835,373.393,246.015,372.905,244.591,373.727z M350.671,373.715l-10.31-5.953c-1.424-0.822-3.244-0.333-4.066,1.09
	c-0.821,1.424-0.334,3.245,1.09,4.066l10.311,5.953c1.424,0.822,3.244,0.334,4.066-1.09
	C352.583,376.357,352.096,374.537,350.671,373.715z M285.833,349.916l-10.31,5.953c-1.424,0.822-1.912,2.643-1.09,4.066
	c0.821,1.424,2.643,1.912,4.066,1.09l10.31-5.953c1.424-0.822,1.912-2.643,1.09-4.066S287.257,349.094,285.833,349.916
	L285.833,349.916z M360.985,379.667c-1.424-0.822-3.245-0.334-4.066,1.09c-0.822,1.424-0.334,3.244,1.09,4.066l0,0l10.31,5.953
	c1.424,0.822,3.245,0.334,4.066-1.09c0.822-1.424,0.334-3.244-1.09-4.066L360.985,379.667z M319.742,355.856
	c-1.424-0.822-3.245-0.334-4.066,1.09c-0.822,1.424-0.334,3.245,1.09,4.066l10.31,5.953c1.424,0.822,3.244,0.334,4.066-1.09
	s0.334-3.245-1.09-4.066L319.742,355.856z M381.604,391.573c-1.424-0.822-3.244-0.334-4.066,1.09
	c-0.821,1.424-0.334,3.245,1.09,4.066l10.311,5.953c1.424,0.822,3.244,0.333,4.066-1.09c0.821-1.424,0.334-3.245-1.09-4.066
	L381.604,391.573z M182.726,409.44l-10.31,5.953c-1.424,0.822-1.912,2.642-1.09,4.066c0.821,1.424,2.643,1.912,4.066,1.09
	l10.31-5.953c1.424-0.822,1.912-2.642,1.09-4.066C185.971,409.106,184.15,408.619,182.726,409.44z M223.968,385.632l-10.31,5.953
	c-1.424,0.822-1.912,2.643-1.09,4.066c0.821,1.424,2.643,1.912,4.066,1.09l10.31-5.953c1.424-0.822,1.912-2.643,1.09-4.066
	C227.213,385.298,225.392,384.811,223.968,385.632L223.968,385.632z M162.107,421.346l-10.311,5.952
	c-1.422,0.826-1.905,2.648-1.08,4.07c0.822,1.416,2.636,1.902,4.057,1.086l10.31-5.951c1.424-0.822,1.912-2.643,1.091-4.066
	C165.351,421.012,163.531,420.524,162.107,421.346L162.107,421.346z M203.349,397.538l-10.311,5.953
	c-1.424,0.822-1.911,2.643-1.09,4.066c0.822,1.424,2.643,1.912,4.066,1.09l10.311-5.953c1.424-0.822,1.911-2.643,1.09-4.066
	C206.593,397.204,204.773,396.716,203.349,397.538L203.349,397.538z M227.009,302.316l-10.313-5.953
	c-1.424-0.822-3.244-0.333-4.066,1.09c-0.821,1.424-0.334,3.244,1.091,4.066l10.313,5.953c1.424,0.822,3.244,0.334,4.066-1.09
	S228.433,303.138,227.009,302.316z M185.767,278.505l-10.313-5.953c-1.424-0.822-3.244-0.334-4.066,1.09
	c-0.821,1.424-0.334,3.245,1.09,4.066l10.313,5.953c1.424,0.822,3.244,0.333,4.066-1.09
	C187.678,281.147,187.191,279.327,185.767,278.505z M165.144,266.6l-10.31-5.953c-1.424-0.822-3.245-0.334-4.066,1.09
	c-0.822,1.424-0.334,3.244,1.09,4.066l10.31,5.953c1.424,0.822,3.244,0.334,4.066-1.09S166.568,267.421,165.144,266.6L165.144,266.6
	z M206.386,290.411l-10.31-5.953c-1.424-0.822-3.244-0.334-4.066,1.09s-0.334,3.245,1.09,4.066l10.31,5.953
	c1.424,0.822,3.245,0.334,4.066-1.09C208.298,293.053,207.81,291.232,206.386,290.411z M423.937,273.616
	c0.822,1.423,2.642,1.911,4.066,1.09l10.315-5.956c1.424-0.822,1.912-2.643,1.09-4.066s-2.643-1.912-4.066-1.09l-10.315,5.956
	C423.603,270.371,423.115,272.191,423.937,273.616C423.936,273.616,423.936,273.616,423.937,273.616z M362.033,309.356
	c0.822,1.423,2.643,1.911,4.066,1.09l10.315-5.956c1.425-0.822,1.912-2.643,1.091-4.066c-0.822-1.424-2.643-1.912-4.066-1.09l0,0
	l-10.316,5.956c-1.424,0.821-1.912,2.641-1.091,4.065C362.033,309.355,362.033,309.355,362.033,309.356z M382.668,297.444
	c0.822,1.424,2.643,1.912,4.066,1.09l10.315-5.959c1.424-0.822,1.912-2.643,1.09-4.066s-2.643-1.912-4.066-1.09l-10.315,5.958
	C382.334,294.2,381.846,296.02,382.668,297.444C382.667,297.444,382.667,297.444,382.668,297.444L382.668,297.444z M403.302,285.531
	c0.822,1.423,2.643,1.911,4.066,1.09l10.315-5.956c1.424-0.822,1.912-2.642,1.09-4.066c-0.821-1.424-2.643-1.912-4.066-1.09
	l-10.315,5.956c-1.424,0.821-1.912,2.642-1.091,4.065C403.301,285.529,403.302,285.53,403.302,285.531z M352.808,311.246
	l-0.792,0.457c-1.8-1.064-4.031-1.086-5.853-0.059l-45.547,26.298v-3.325c0-1.644-1.333-2.976-2.977-2.976s-2.977,1.333-2.977,2.976
	v3.325l-45.547-26.299c-1.822-1.026-4.053-1.005-5.854,0.057l-5.943-3.432c-1.424-0.822-3.244-0.334-4.066,1.09
	c-0.822,1.424-0.334,3.245,1.09,4.066l5.944,3.432c-0.018,2.091,1.079,4.033,2.878,5.099l48.523,28.016v56.09
	c0.023,2.09,1.157,4.01,2.976,5.04v6.866c0,1.644,1.333,2.977,2.977,2.977s2.977-1.333,2.977-2.977v-6.866
	c1.819-1.03,2.953-2.95,2.977-5.04v-52.654l2.859,1.651c1.425,0.822,3.245,0.334,4.066-1.09c0.822-1.424,0.334-3.245-1.09-4.066
	l-2.858-1.65l45.546-26.297c1.798-1.066,2.895-3.008,2.877-5.098l0.791-0.457c1.424-0.822,1.912-2.643,1.09-4.066
	S354.232,310.424,352.808,311.246L352.808,311.246L352.808,311.246z M300.616,429.875c0-1.645-1.333-2.977-2.977-2.977
	s-2.977,1.332-2.977,2.977v11.906c0,1.643,1.333,2.975,2.977,2.975s2.977-1.332,2.977-2.975V429.875z M300.616,453.685
	c0-1.643-1.333-2.977-2.977-2.977s-2.977,1.334-2.977,2.977v11.906c0,1.645,1.333,2.977,2.977,2.977s2.977-1.332,2.977-2.977
	V453.685z M297.64,498.332c-1.643-0.002-2.976,1.33-2.977,2.973c0,0.002,0,0.002,0,0.004v11.906c0,1.643,1.333,2.975,2.977,2.975
	s2.977-1.332,2.977-2.975v-11.906c0.001-1.643-1.33-2.977-2.973-2.977C297.643,498.332,297.641,498.332,297.64,498.332z
	 M300.616,477.498c0-1.645-1.333-2.977-2.977-2.977s-2.977,1.332-2.977,2.977v11.904c0,1.645,1.333,2.977,2.977,2.977
	s2.977-1.332,2.977-2.977V477.498z M294.663,322.712c0,1.644,1.333,2.976,2.977,2.976s2.977-1.333,2.977-2.976v-11.906
	c0-1.644-1.333-2.977-2.977-2.977s-2.977,1.333-2.977,2.977V322.712z M294.663,275.09c0,1.644,1.333,2.977,2.977,2.977
	s2.977-1.333,2.977-2.977v-11.906c0-1.644-1.333-2.976-2.977-2.976s-2.977,1.333-2.977,2.976V275.09z M294.663,298.901
	c0,1.644,1.333,2.977,2.977,2.977s2.977-1.333,2.977-2.977v-11.905c0-1.644-1.333-2.977-2.977-2.977s-2.977,1.333-2.977,2.977
	V298.901z M294.663,251.278c0,1.644,1.333,2.977,2.977,2.977s2.977-1.333,2.977-2.977v-11.905c0-1.644-1.333-2.977-2.977-2.977
	s-2.977,1.333-2.977,2.977V251.278z M294.663,227.467c0,1.644,1.333,2.977,2.977,2.977s2.977-1.333,2.977-2.977v-11.906
	c0-1.644-1.333-2.976-2.977-2.976s-2.977,1.333-2.977,2.976V227.467z M297.64,206.633c1.643,0,2.976-1.331,2.977-2.973
	c0-0.001,0-0.002,0-0.003V191.75c0-1.644-1.333-2.976-2.977-2.976s-2.977,1.333-2.977,2.976v11.906
	c-0.001,1.643,1.33,2.976,2.974,2.977C297.638,206.633,297.639,206.633,297.64,206.633z"/>
<text transform="matrix(1.0905 0 0 1 367.0452 489.7681)" font-family="'Corbel-Bold'" font-size="161.0991">AR</text>
</svg>
