<svg width="20" height="20" viewBox="0 0 20 20" fill="none" xmlns="http://www.w3.org/2000/svg" svg-inline="" role="presentation" focusable="false" tabindex="-1" class="mt-4 dna-switcher__svg"><path fill-rule="evenodd" clip-rule="evenodd" d="M7.42 6.25H5.25V7.5h2.17V6.25zM8.67 7.5V5H4v2.5H1.25v5H4V15h4.67v-2.5h2.666V15h4.67v-2.5H18.75v-5H16.006V5h-4.67v2.5H8.67zM7.42 8.75H5.25v2.5h2.17v-2.5zm1.25 2.5v-2.5h2.666v2.5H8.67zm3.916 1.25v1.25h2.17V12.5h-2.17zm2.17-1.25h-2.17v-2.5h2.17v2.5zm1.25 0H17.5v-2.5h-1.494v2.5zm-1.25-3.75V6.25h-2.17V7.5h2.17zm-7.336 5H5.25v1.25h2.17V12.5zM4 11.25v-2.5H2.5v2.5H4z" fill="#4ce200"></path></svg>